<svg xmlns="http://www.w3.org/2000/svg" version="1.1" xmlns:xlink="http://www.w3.org/1999/xlink" viewBox="0 0 200 200"><rect width="200" height="200" fill="url('#gradient')"></rect><defs><linearGradient id="gradient" gradientTransform="rotate(45 0.5 0.5)"><stop offset="0%" stop-color="#ddc169"></stop><stop offset="100%" stop-color="#e7e69b"></stop></linearGradient></defs><g><g fill="#082f59" transform="matrix(6.481012658227848,0,0,6.481012658227848,-0.49090981936153355,142.7762429080432)" stroke="#407fa7" stroke-width="0.2"><path d="M8.16-14.22L8.16 0L4.86 0L4.86-10.51L1.62-9.56L1.62-12.06L7.86-14.22L8.16-14.22ZM18.50-14.22L13.63 1.22L11.30 1.22L16.15-14.22L18.50-14.22ZM29.39-2.54L29.39 0L19.47 0L19.47-2.15L24.04-6.95Q25.73-8.88 25.73-10.01L25.73-10.01Q25.73-10.93 25.33-11.41Q24.93-11.88 24.17-11.88L24.17-11.88Q23.42-11.88 22.95-11.25Q22.48-10.61 22.48-9.65L22.48-9.65L19.18-9.65Q19.18-10.96 19.83-12.07Q20.49-13.17 21.65-13.80Q22.81-14.42 24.25-14.42L24.25-14.42Q26.55-14.42 27.80-13.36Q29.04-12.29 29.04-10.30L29.04-10.30Q29.04-9.46 28.73-8.67Q28.42-7.87 27.76-7.00Q27.10-6.12 25.63-4.66L25.63-4.66L23.80-2.54L29.39-2.54Z"></path></g></g></svg>